<mxfile host="app.diagrams.net" modified="2023-05-05T20:03:02.961Z" agent="Mozilla/5.0 (Windows NT 10.0; Win64; x64) AppleWebKit/537.36 (KHTML, like Gecko) Chrome/112.0.0.0 Safari/537.36 OPR/98.0.0.0" version="21.2.9" etag="Tj9cgLbwBIXNf3BkW7DH" type="github">
  <diagram name="PÃ¡gina-1" id="diwCI-qrEyUe67aXewda">
    <mxGraphModel>
      <root>
        <mxCell id="0" />
        <mxCell id="1" parent="0" />
      </root>
    </mxGraphModel>
  </diagram>
</mxfile>
